<svg width="75" height="87" viewBox="0 0 75 87" fill="none" xmlns="http://www.w3.org/2000/svg">
<g style="mix-blend-mode:luminosity" clip-path="url(#clip0_255_333)">
<path fill-rule="evenodd" clip-rule="evenodd" d="M49.9074 21.095C52.9505 17.6297 55.2262 13.2933 56.5295 10.6267L74.7486 32.3289C75.1323 32.7909 75.0595 33.5037 74.6692 33.946L73.6438 35.1274L56.47 54.8297C51.7994 52.5525 49.8346 51.3908 46.7518 48.2887L54.6044 39.8137L38.8529 39.7477C36.5242 36.3485 34.6256 34.6258 35.7833 33.1539C36.7028 31.9922 40.2355 30.3553 42.4252 28.3818H55.7158L49.9074 21.1016V21.095Z" fill="#D73F55"/>
<path fill-rule="evenodd" clip-rule="evenodd" d="M37.7944 0.356524C38.0855 2.07263 39.2366 10.3561 39.2498 12.4155C41.5652 10.2505 45.5213 2.12543 45.0053 1.67661C49.4443 2.91088 51.6539 4.8118 54.2273 7.87439C51.773 14.422 45.4816 22.7913 34.7843 29.1211C34.2353 29.4511 33.2297 29.7943 32.4292 28.9957C25.7939 16.7783 15.5729 10.3891 11.1405 8.69944C14.5674 5.68305 16.0558 4.39597 20.2368 3.00329C21.9503 3.2607 28.2085 7.34636 30.5173 11.0492C29.2405 7.73578 28.6121 2.97029 27.6594 0.706345C32.7071 0.0265032 33.2628 -0.296917 37.7944 0.356524Z" fill="#1D619D"/>
<path fill-rule="evenodd" clip-rule="evenodd" d="M0.357237 27.9132C2.07727 27.6294 10.3797 26.4743 12.4438 26.4611C10.2739 24.151 2.12358 20.204 1.68034 20.7188C2.91744 16.2899 4.8227 14.0854 7.8923 11.5178C14.4549 13.9666 22.8433 20.2436 29.1876 30.9164C29.5184 31.4643 29.8624 32.4675 29.0619 33.2662C16.8166 39.8798 10.4194 50.0708 8.72585 54.4997C5.70257 51.0807 4.41254 49.589 3.01667 45.4241C3.27468 43.7146 7.36967 37.4706 11.081 35.1737C7.75999 36.4476 2.98359 37.0746 0.714475 38.0251C0.0330777 32.989 -0.291082 32.4411 0.363853 27.9132" fill="#1D619D"/>
<path fill-rule="evenodd" clip-rule="evenodd" d="M27.977 65.2649C27.6925 63.5488 26.5348 55.2653 26.5216 53.206C24.2061 55.3709 20.2501 63.496 20.7661 63.9448C16.3271 62.7106 14.1175 60.8096 11.5441 57.747C13.9984 51.1994 20.2898 42.8301 30.987 36.5003C31.5361 36.1769 32.5417 35.8271 33.3421 36.6257C39.9709 48.8431 50.1852 55.2257 54.6242 56.9154C51.1974 59.9252 49.7023 61.2189 45.5279 62.6116C43.8145 62.3541 37.5562 58.2685 35.254 54.5657C36.5308 57.8791 37.1593 62.6446 38.1119 64.9085C33.0643 65.5883 32.5086 65.9118 27.977 65.2583" fill="#1D619D"/>
<path fill-rule="evenodd" clip-rule="evenodd" d="M51.6208 75.6076V80.8616H50.8137C50.2448 80.9078 49.7883 81.3896 49.7883 81.9704C49.7883 82.5513 50.2382 83.0265 50.8137 83.0727H50.8468C50.8666 83.0727 50.8799 83.0727 50.8997 83.0727C50.9196 83.0727 50.9328 83.0727 50.9526 83.0727H54.5052C54.5052 83.0727 54.5382 83.0727 54.5581 83.0727C55.1667 83.0727 55.6629 82.5777 55.6629 81.9704C55.6629 81.3632 55.1667 80.8682 54.5581 80.8682H53.8304V74.578C53.8304 74.578 53.8304 74.5384 53.8304 74.5186C53.8304 74.4988 53.8304 74.479 53.8304 74.4526V73.3965H50.8137C50.2448 73.4427 49.7883 73.9245 49.7883 74.5054C49.7883 75.0862 50.2382 75.5614 50.8137 75.6076H50.8468C50.8666 75.6076 50.8799 75.6076 50.8997 75.6076C50.9196 75.6076 50.9328 75.6076 50.9526 75.6076H51.6208ZM52.6264 69.5023C53.235 69.5023 53.7311 69.9973 53.7311 70.6045C53.7311 71.2118 53.235 71.7068 52.6264 71.7068C52.0177 71.7068 51.5216 71.2118 51.5216 70.6045C51.5216 69.9973 52.0177 69.5023 52.6264 69.5023ZM61.4647 73.4031H61.4448H58.5274V70.6177C58.5274 70.6177 58.5274 70.5781 58.5274 70.5649C58.5274 69.9577 58.0312 69.4626 57.4226 69.4626C56.814 69.4626 56.3376 69.9379 56.3178 70.5253V73.4097H55.5107C54.9418 73.4559 54.4853 73.9377 54.4853 74.5186C54.4853 75.0994 54.9352 75.5746 55.5107 75.6208H55.5438C55.5636 75.6208 55.5769 75.6208 55.5967 75.6208C55.6166 75.6208 55.6298 75.6208 55.6496 75.6208H56.3178V81.3038H56.3244C56.2913 81.6206 56.4038 81.944 56.642 82.1882C56.6552 82.2014 56.6618 82.208 56.675 82.2212L58.5141 84.0628C58.5274 84.076 58.534 84.0892 58.5472 84.0958C58.9772 84.5248 59.6785 84.5248 60.1151 84.0958C60.5451 83.6667 60.5451 82.9671 60.1151 82.5381L58.5274 80.954V75.6208H61.4117C61.4117 75.6208 61.4448 75.6208 61.4647 75.6208C62.0733 75.6208 62.5695 75.1258 62.5695 74.5186C62.5695 73.9113 62.0733 73.4163 61.4647 73.4163V73.4031Z" fill="#D73F55"/>
<path fill-rule="evenodd" clip-rule="evenodd" d="M16.4462 75.5747C17.8949 75.5747 19.0659 76.743 19.0659 78.1885C19.0659 79.634 17.8949 80.8023 16.4462 80.8023C14.9974 80.8023 13.8264 79.634 13.8264 78.1885C13.8264 76.743 14.9974 75.5747 16.4462 75.5747ZM33.4348 82.2082C33.4348 82.2082 33.4149 82.1883 33.4017 82.1751C33.1569 81.9309 33.0511 81.6075 33.0842 81.2907V71.5881H32.3498C31.7412 71.5881 31.245 71.0931 31.245 70.4792C31.245 69.8654 31.7412 69.377 32.3498 69.377C32.3697 69.377 32.3829 69.377 32.4028 69.377H35.3003V70.5122V74.4197C35.3003 74.4197 35.3003 74.4527 35.3003 74.4725C35.3003 74.4923 35.3003 74.5055 35.3003 74.5253V80.9409L36.8881 82.525C37.3181 82.9606 37.3181 83.6536 36.8881 84.0827C36.4581 84.5117 35.7568 84.5117 35.3202 84.0827C35.307 84.0695 35.2937 84.0563 35.2805 84.0431L33.4414 82.2082H33.4348ZM14.5277 73.7596C14.5277 73.7596 14.5806 73.7398 14.607 73.7266L14.5277 73.7596ZM41.5785 80.8881C40.1297 80.8881 38.9587 79.7198 38.9587 78.2743C38.9587 76.8288 40.1297 75.6605 41.5785 75.6605C43.0273 75.6605 44.1982 76.8288 44.1982 78.2743C44.1982 79.7198 43.0273 80.8881 41.5785 80.8881ZM41.5785 83.0926C38.9124 83.0926 36.7491 80.9343 36.7491 78.2743C36.7491 75.6143 38.9124 73.456 41.5785 73.456C44.2445 73.456 46.4078 75.6143 46.4078 78.2743C46.4078 80.9343 44.2445 83.0926 41.5785 83.0926ZM26.7796 75.5747C28.2284 75.5747 29.3993 76.743 29.3993 78.1885C29.3993 79.634 28.2284 80.8023 26.7796 80.8023C25.3308 80.8023 24.1598 79.634 24.1598 78.1885C24.1598 76.743 25.3308 75.5747 26.7796 75.5747ZM26.7796 73.3702C29.4456 73.3702 31.6089 75.5285 31.6089 78.1885C31.6089 80.8485 29.4456 83.0068 26.7796 83.0068C24.1135 83.0068 21.9503 80.8485 21.9503 78.1885C21.9503 75.5285 24.1135 73.3702 26.7796 73.3702ZM14.4946 84.7955C14.4946 84.7955 14.5277 84.7955 14.5475 84.7955C15.1561 84.7955 15.6523 85.2905 15.6523 85.8978C15.6523 86.505 15.1561 87 14.5475 87H12.7084H10.8693C10.2607 87 9.76449 86.4984 9.76449 85.8912C9.76449 85.2839 10.2607 84.7889 10.8693 84.7889C10.8891 84.7889 10.909 84.7889 10.9222 84.7889H11.597V75.7133H10.8627C10.254 75.7133 9.75787 75.2117 9.75787 74.6045C9.75787 73.9972 10.254 73.5022 10.8627 73.5022C10.8825 73.5022 10.8957 73.5022 10.9156 73.5022H13.8132V74.1358C13.9323 74.0566 14.0513 73.9906 14.177 73.9246C14.2498 73.885 14.316 73.852 14.3887 73.819H14.4086C14.4417 73.7926 14.4747 73.7794 14.5144 73.7596C14.5144 73.7596 14.5673 73.7332 14.5938 73.7266L14.6335 73.7134L14.693 73.687L14.7394 73.6672L14.7989 73.6474L14.865 73.6276L14.9047 73.6144L14.9709 73.5946L15.0106 73.5814C15.0106 73.5814 15.0701 73.5616 15.0966 73.555H15.1098C15.1098 73.555 15.176 73.5352 15.2091 73.522H15.2289C15.2289 73.522 15.2951 73.5022 15.3281 73.489H15.3414C15.3414 73.489 15.4009 73.4692 15.434 73.4692H15.4737C15.4737 73.4692 15.5266 73.4494 15.5531 73.4428H15.5795C15.5795 73.4428 15.6457 73.4296 15.6788 73.423H15.692C15.7251 73.4164 15.7648 73.4098 15.7978 73.4032H15.8177C15.8177 73.4032 15.8772 73.3966 15.9037 73.39H15.9434C15.9434 73.39 16.0029 73.3834 16.036 73.3768H16.0558C16.0889 73.3768 16.1286 73.3768 16.1617 73.3702H16.1881C16.2212 73.3702 16.2609 73.3702 16.294 73.3702C16.3337 73.3702 16.3734 73.3702 16.4197 73.3702C19.0857 73.3702 21.249 75.5285 21.249 78.1885C21.249 80.8485 19.0857 83.0068 16.4197 83.0068C16.3006 83.0068 16.1749 83.0068 16.0558 82.9936H16.036C15.9566 82.987 15.8838 82.9804 15.8111 82.9672H15.7978C15.7648 82.9672 15.7317 82.954 15.6986 82.954H15.6788C15.6391 82.9474 15.606 82.9408 15.5663 82.9342H15.5597C15.52 82.9276 15.4869 82.921 15.4472 82.9144C15.4075 82.9078 15.3744 82.9012 15.3347 82.888C15.2951 82.8748 15.262 82.8682 15.2223 82.8616H15.2157C15.1826 82.8484 15.1495 82.8418 15.1164 82.8352H15.0966C15.0635 82.822 15.0304 82.8088 14.9974 82.8022C14.9974 82.8022 14.9378 82.7824 14.9047 82.7692L14.8717 82.756C14.8717 82.756 14.8121 82.7362 14.7857 82.723H14.7658C14.7658 82.723 14.6997 82.69 14.6732 82.6834H14.6533C14.6533 82.6834 14.5938 82.6504 14.5607 82.6372C14.5607 82.6372 14.5012 82.6108 14.4681 82.5976L14.4284 82.5778L14.3623 82.5448L14.3292 82.5316C14.3292 82.5316 14.2829 82.5118 14.263 82.4986L14.2233 82.4788L14.1572 82.4458L14.1109 82.4194L14.058 82.393L14.0116 82.3666L13.9521 82.3336L13.9124 82.3072L13.8595 82.2742L13.8132 82.2411V84.8021H14.488L14.4946 84.7955Z" fill="#1D619D"/>
</g>
<defs>
<clipPath id="clip0_255_333">
<rect width="75" height="87" fill="white"/>
</clipPath>
</defs>
</svg>
